<svg id="logo-pasta" xmlns="http://www.w3.org/2000/svg" xmlns:xlink="http://www.w3.org/1999/xlink" width="1130.2" height="432.1" viewBox="394.9 323.9 1130.2 432.1">
<path fill-rule="nonzero" fill="currentColor" fill-opacity="1" d="M 528.5625 423.359375 C 528.5625 381 518.117188 365.914062 480.398438 365.914062 L 453.707031 365.914062 L 453.707031 534.777344 L 478.078125 534.777344 C 518.117188 534.777344 528.5625 516.207031 528.5625 475.003906 Z M 585.433594 447.730469 C 585.433594 539.417969 550.035156 563.210938 478.660156 563.210938 L 453.707031 563.210938 L 453.707031 743.101562 L 400.898438 743.101562 L 400.898438 336.894531 L 480.398438 336.894531 C 545.972656 336.894531 585.433594 360.6875 585.433594 447.730469 "/>
<path fill-rule="nonzero" fill="currentColor" fill-opacity="1" d="M 711.933594 628.785156 L 671.890625 440.769531 L 631.851562 628.785156 Z M 718.3125 657.796875 L 625.46875 657.796875 L 607.480469 743.101562 L 577.886719 743.101562 L 666.667969 336.894531 L 700.328125 336.894531 L 789.691406 743.101562 L 736.304688 743.101562 Z M 718.3125 657.796875 "/>
<path fill-rule="nonzero" fill="currentColor" fill-opacity="1" d="M 801.871094 701.320312 L 821.601562 675.789062 L 826.242188 675.789062 C 841.328125 706.542969 859.320312 721.050781 884.851562 721.050781 C 913.285156 721.050781 934.757812 704.800781 934.757812 665.921875 C 934.757812 569.59375 811.15625 533.035156 811.15625 425.101562 C 811.15625 367.074219 843.652344 329.933594 895.878906 329.933594 C 921.988281 329.933594 951.007812 339.21875 967.832031 371.132812 L 949.84375 397.246094 L 945.203125 397.246094 C 933.015625 367.074219 914.449219 358.949219 895.878906 358.949219 C 872.085938 358.949219 851.195312 372.296875 851.195312 403.628906 C 851.195312 483.710938 977.699219 526.652344 977.699219 640.96875 C 977.699219 707.703125 940.5625 750.066406 884.851562 750.066406 C 845.394531 750.066406 820.4375 732.65625 801.871094 701.320312 "/>
<path fill-rule="nonzero" fill="currentColor" fill-opacity="1" d="M 1105.933594 365.910156 L 1105.933594 743.101562 L 1053.125 743.101562 L 1053.125 365.910156 L 983.492188 365.910156 L 991.617188 336.894531 L 1168.027344 336.894531 L 1174.988281 365.910156 Z M 1105.933594 365.910156 "/>
<path fill-rule="nonzero" fill="currentColor" fill-opacity="1" d="M 1295.101562 628.785156 L 1255.0625 440.769531 L 1215.023438 628.785156 Z M 1301.488281 657.796875 L 1208.636719 657.796875 L 1190.652344 743.101562 L 1161.054688 743.101562 L 1249.839844 336.894531 L 1283.496094 336.894531 L 1372.859375 743.101562 L 1319.472656 743.101562 Z M 1301.488281 657.796875 "/>
<path fill-rule="nonzero" fill="currentColor" fill-opacity="1" d="M 1410.523438 459.183594 C 1417.796875 459.183594 1424.03125 452.429688 1428.445312 441.519531 L 1430.003906 441.519531 L 1436.757812 451.652344 C 1431.304688 463.597656 1421.953125 471.132812 1410.003906 471.132812 C 1387.40625 471.132812 1372.859375 448.015625 1372.859375 403.082031 C 1372.859375 358.140625 1387.40625 335.027344 1410.003906 335.027344 C 1421.953125 335.027344 1431.304688 342.558594 1436.757812 354.507812 L 1428.707031 366.195312 L 1427.148438 366.195312 C 1422.992188 354.507812 1417.277344 346.972656 1410.523438 346.972656 C 1399.875 346.972656 1395.980469 358.140625 1395.980469 385.15625 L 1395.980469 421 C 1395.980469 448.015625 1399.875 459.183594 1410.523438 459.183594 "/>
<path fill-rule="nonzero" fill="currentColor" fill-opacity="1" d="M 1495.984375 422.039062 L 1495.984375 384.117188 C 1495.984375 358.402344 1492.347656 346.972656 1481.4375 346.972656 C 1470.265625 346.972656 1466.890625 358.402344 1466.890625 384.117188 L 1466.890625 422.039062 C 1466.890625 447.757812 1470.265625 459.183594 1481.4375 459.183594 C 1492.347656 459.183594 1495.984375 447.757812 1495.984375 422.039062 M 1443.773438 403.078125 C 1443.773438 358.140625 1459.359375 335.023438 1481.4375 335.023438 C 1503.515625 335.023438 1519.101562 358.140625 1519.101562 403.078125 C 1519.101562 448.015625 1503.515625 471.132812 1481.4375 471.132812 C 1459.359375 471.132812 1443.773438 448.015625 1443.773438 403.078125 "/>
<path fill-rule="nonzero" fill="currentColor" fill-opacity="1" d="M 1485.152344 485.515625 L 1514.261719 485.515625 L 1510.867188 498.503906 L 1380.609375 498.503906 L 1377.699219 485.515625 Z M 1485.152344 485.515625 "/>
</svg>
